# xmcd CD database file
#
# Track frame offsets:
#	150
#	9528
#	17493
#	27358
#	40114
#	47129
#	56444
#	63693
#	73394
#	87692
#	95041
#	100466
#
# Disc length: 1438 seconds
#
# Revision: 0
# Processed by: cddbd v1.5.2PL0 Copyright (c) Steve Scherf et al.
# Submitted via: CDex 1.51
#
DISCID=a9059c0c
DTITLE=Pericles - Fuck Your Etiquette
DYEAR=2007
DGENRE=Salsa
TTITLE0=O'l American Booger
TTITLE1=The Gringo has Come!
TTITLE2=Puercos Bad, Pericles Good
TTITLE3=Rawk le Boat
TTITLE4=Mi Nombre es Pericles!
TTITLE5=Guardian Cowboys
TTITLE6=Libido's in the Confessional
TTITLE7=Cradle of Dumb
TTITLE8=Quiet and Dead
TTITLE9=My Eternal
TTITLE10=Amenities of the Modern Man
TTITLE11=Lampooning: Somtimes the Best Cleanser
EXTD=YEAR: 2007
EXTT0=
EXTT1=
EXTT2=
EXTT3=
EXTT4=
EXTT5=
EXTT6=
EXTT7=
EXTT8=
EXTT9=
EXTT10=
EXTT11=
PLAYORDER=
